<?xml version="1.0" encoding="UTF-8"?>
<svg id="Layer_1" xmlns="http://www.w3.org/2000/svg" version="1.1" viewBox="0 0 650.84 390.71">
  <!-- Generator: Adobe Illustrator 29.1.0, SVG Export Plug-In . SVG Version: 2.1.0 Build 142)  -->
  <defs>
    <style>
      .st0 {
        fill: gray;
      }

      .st1 {
        fill: #16a34a;
      }

      .st2 {
        fill: #767676;
      }

      .st3 {
        fill: #8d8d8d;
      }

      .st4 {
        fill: #868686;
      }

      .st5 {
        fill: #878787;
      }
    </style>
  </defs>
  <path class="st1" d="M218.8,133.66c19.12-.35,38.29,2.01,57.54,1.04,17.9-.9,35.67-4.8,53.95-4.03,39.36,1.65,78.96,1.96,118.51,2.99,10.89.28,26.25,2.36,36.43.94,7.7-1.08,5.85-7.01,8.79-8.27,4.26-1.82,11.5.06,16.22-.71,2.79-.46,3.93-2.6,7-3,5.15-.66,16.48-.42,20.9,2.2,1.85,1.1,3.31,3.72,4.67,4.33,6.67,3.04,38.92-1.26,48.44-1.52,14.93-.41,29.95.26,44.88.2,1.87.65,1.82,2.04,1.65,3.84-12.06.18-24.46.16-36.49,1.01-17.17,1.23-42.5,6.68-58.96,3.94-4.13-.69-6.87-5.07-9.26-5.74-1.41-.39-12.28-1.45-13.81-1.28-3.02.33-4.22,2.56-7.03,3.02-3.82.63-9.37-.8-12.76.24-3.61,1.1-2.91,7.89-13.15,8.85-25.22,2.36-52.66-2.38-78-3.08-23.63-.65-47.54.04-71,0-28.8-.05-57.18,4.8-85.08,4.08-7.76-.2-17.19-2.01-24.92-2.1-4.8-.06-13.77,2.45-17.55.57-1.32-.66-1.85-2.99-3.04-3.96-4.11-3.39-15.55-.48-21.24-1.76-3.54-.8-6.32-6.1-10.34-6.5-2.99-.3-6.22,2.26-8.93,2.65-8.42,1.22-10.01-4.43-15.93-4.99s-8.77,3.23-14.09,3.96c-4.84.66-22.39,1.16-26.11-.72-2.85-1.44-6.46-5.95-9.75-6.07-9.62-.34-22.24,1.77-32.01,1.91-18.01.27-35.88-1.27-53.88-1.2-2.76-1.32-1.92-3.34.85-3.84,25.07-.84,50.03-2.31,75.04-2.96,5.03-.13,8.8-2.06,14.49-.57,3.73.98,5.61,4.65,8.22,5.78,3.19,1.37,14.21,1.05,18.12.63,9.3-1.01,13.71-7.5,23.82-3.57,2.5.97,5.29,4.17,7.52,4.53,2.64.42,6.82-2.35,9.87-2.74,11.21-1.44,10.58,5.68,18.35,7.48,6.61,1.53,13.95-1.91,18.99,1.02,1.78,1.04,3.06,3.75,4.81,4.27,2.18.64,3.44-.84,4.26-.86Z"/>
  <path class="st1" d="M247.3,311.66c-1.34-.38-2.42-3.84-3.5-4.5-4.24-2.58-25.4,1.58-31.77-1.17-3.05-1.31-2.47-8.06-3.4-9.16-2.34-2.75-21.37.15-23.68-1.32-.73-.47-1.5-5.87-2.3-7.2-2.36-3.89-12.18-.57-16.33-.58-1.63,0-12.96-1.19-13.54-1.56-2.13-1.35-.43-3.46,1.54-3.53,6,.22,37.49-2.96,40.01-.01,1.67,1.96,1.21,7.71,1.5,8.01.95.98,18.58-1.71,22.94,1.56,3.02,2.27,1.27,6.69,2.49,8.51,1.75,2.59,21.5-.35,25.9,1.1,2.38.78,1.95,4.56,3.33,4.88,3.85.92,19.37-2.17,20.33,2.47.38.85-1.19,2.49-1.5,2.49-4.82,0-18.56.96-22,0Z"/>
  <path class="st1" d="M135.12,170.65v-2.99c12.9.54,25.76-2.3,38.52-2.99,28.36-1.55,55.72,1.46,83.28,1.24,7.35-.06-.87,6.53-3.3,6.76-1.64.15-3.47-1.14-5.04-1.06-16.88.92-29.22-.62-45.87-2.04-2.37-.2-4.56-1.98-7.09-1.96-3.09.02-5.41,2.63-8.96,3.07-15.74,1.96-35.37-1.5-51.53-.03Z"/>
  <path class="st1" d="M323.8,303.8c-.48-7.18,12.98-2.96,18.48-4.02,2.6-.5,2.92-2.61,4.56-3.43,5.15-2.55,9.65.07,14.5-.48,3.24-.36,3.55-2.54,5.98-3.04,4.9-1.02,19.33-1.87,23.95-1,2.16.41,8.8,8.9,9.31,10.69.58,2.01-.04,4.4.46,6.54.3,1.27,4,10.93,1.25,10.73-3.01-.21-5.17-14.58-6.05-16.93-4.48-11.99-19.25-5.37-28.75-6.08-3.21,5.81-12.35,1.94-18.17,3.05-2.53.48-4.54,3.98-5.02,3.98h-20.5Z"/>
  <path class="st1" d="M466.12,261.81v14.85c-4.15-.08-8.33.12-12.49,0-1.27-.04-6.51-2.06-6.51.5v17.15c0,3.03-13.05.51-14.86,1.64-1.52.95-.24,7.66-2.64,8.86h-16c-.12,0-2-1.45-1.01-2,1.44-1.99,12.53-1.05,14.58-2.43s-.14-6.72,1.87-8.13,11.01.14,14.06-.44v-16.5c0-.33,1.32-1.52,1-2.5h19v-11s3,0,3,0Z"/>
  <path class="st1" d="M477.8,148.66c1.28.97-.03,1.76-1.23,2.26-1.92.79-6.99,1.34-9.39,1.61-20.61,2.31-52.3,2.87-72.92,1.18-1.75-.14-3.28.2-4.44-1.57-.48-2.42,1.94-1.42,3.48-1.48,20.61-.87,36.33-.78,56.98-3.03,8.7-.95,18.8.54,27.53,1.04Z"/>
  <path class="st1" d="M89.8,164.66c-2.37-2.43,2.55-3.83,4.49-4,13.69-1.18,27.38-.39,41.05-.96,3.42-.14,7.12-2.1,10.45-.55-.79,1-1.8,1.6-2.99,2.01-2.53.88-17.07,3.5-19.5,3.5-4.47,0-32.33,1.2-33.5,0Z"/>
  <path class="st1" d="M516.81,155.65c-.37-2.2.91-2.39,2.55-2.94,11.1-3.76,31.08-2.96,42.99-2.1,1.12.08,4.35.05,4.44,1.54.14,2.5-45.9,2.83-49.97,3.49Z"/>
  <path class="st1" d="M576.3,173.66c1.81.28,3.75,2.69,2.5,3.99-1.43,1.49-28.19,2-29-1.51-.22-.97,1.14-2.49,1.5-2.49,7.19,0,18.45-1,25,0Z"/>
  <path class="st1" d="M256.3,154.8c.4.11,2.76,2.65,2.5,2.99-1.02-.3-2.15,1.01-2.5,1.01h-24c-3.37,0-2.66-4-1-4,5.32,0,21.26-1.06,25,0Z"/>
  <path class="st1" d="M85.8,271.66l-.78.48.78,2.52c-1.45.19-3.12.19-5,0-.03.14-1.94.97-2,2-1.84-1.36-12.99-10.97-10.99-12.99,6.66.94,12.22,5.16,17.99,7.99Z"/>
  <path class="st1" d="M291.12,309.8v-3c1.89-.33,11.58.43,12.01,0,.94-.94-2.12-10.77,2.48-11.02,1.73-.04,2.59,14.01,0,14.01h-14.5Z"/>
  <path class="st1" d="M592.3,213.66c3.47,1,1.27,3.71-2.95,4.05-3.63.29-15.05,1.32-13.55-4.05,4.41.79,12.71-1.09,16.5,0Z"/>
  <path class="st1" d="M542.8,100.65c-5.81.67-9.7,1.51-15.56.03-1.67-.42-2.92,1.01-2.43-2.02,3.57,1.31,14.19-1.46,16.34-.9,1.27.33,1.91,1.63,1.65,2.89Z"/>
  <path class="st1" d="M464.8,224.66c-6.09,2.49-6.36-8.09-3.49-9,4.67-1.47,3.49,6.7,3.49,9Z"/>
  <path class="st1" d="M464.78,243.65c-4.41,2.8-5.47-8.36-2.47-8.99,3.95-.83,4.03,8,2.47,8.99Z"/>
  <path class="st1" d="M553.8,284.8h-1c-.06-4.45-.68-10.45,3.99-13,1.84,4.56-1.42,8.89-2.99,13Z"/>
  <path class="st2" d="M583.8,287.66c-1.1,4.52-1.59,9.27-2.68,13.82-.38,1.61-.71,5.64-2.31,6.18l3.99-21c.29.37.66.68,1,1Z"/>
  <path class="st1" d="M366.32,232.66c3.43-.72,3.3,8.5.97,8.99-3.43.72-3.3-8.5-.97-8.99Z"/>
  <path class="st1" d="M267.46,292.81c8.22-2.49,8.17,6.19,0,3.69-2.2-.67-2.2-3.03,0-3.69Z"/>
  <path class="st1" d="M240.12,282.66v2.99c-2.95-.26-6.78,1.12-9-1.51.2-3.22,7.06-.75,9-1.48Z"/>
  <path class="st1" d="M571.8,267.66c.04,3.43.73,8.09-2.98,9.99.42-3.31-1.83-9.88,2.98-9.99Z"/>
  <path class="st1" d="M369.8,249.8c.92,7.94-4.88,8.07-3.99,0h3.99Z"/>
  <path class="st1" d="M277.81,264.65c-.81-.59-1.92-6.46,1.47-5.99,3.36,1.64.65,7.55-1.47,5.99Z"/>
  <rect class="st1" x="318.12" y="278.8" width="6" height="3"/>
  <path class="st4" d="M125.8,240.67c.65.72-7.09,16.04-8.99,16.99,1.24-5.05,3.89-10.56,6.5-15.03.36-.61.87-3.75,2.49-1.96Z"/>
  <path class="st5" d="M93.81,267.66c.32-4.89-2.84-11.45-.5-16,.43,4.71,5.07,12.39.5,16Z"/>
  <path class="st0" d="M101.81,246.66c3.39,3.34,3.84,10.4,3.98,14.99-3,.49-1.61-.72-2.02-2.42"/>
  <path class="st1" d="M551.51,219.7c2.25-.12,16.65-2.13,17.17-2.84.72-.97.43-1.99.44-3.05-19.46,2.12-38.78-.9-58.31-1.2-5.17-2.59-2.17-9.41-5.15-12.85-5.08-5.86-16.45-2.53-17.4-5.6-.21-.67-.8-8.04-.63-8.42,2.05-4.56,25.99-4.48,30.98-4.96,6.78-.64,13.38-3.04,20.52-1.99,1.54-4.71-3.68-5.45-7.61-5.89-29.33-3.25-64.26.82-94.88-2.12-8.81-.85-4.74-4.64-7.5-6.5-4.39-2.97-24.86-.77-31.52-1.48-4.13-.44-8.5-2.58-13.01-2.99-29.28-2.66-55.4,2.22-83.99,3.97-4.11.25-25.74-.91-27.06.94-2.05,2.87,1.08,5.92,4.14,6.01,25.33-1.32,48.79-.89,73.94,1.06,5.47.42,11.55-.59,16.91.09,3.89.49,7.63,2.84,12.08,2.98,16.67.55,34.04-1.81,51.02,2.92l38.48,3.02c-1.42,7.33-10.55,3.72-14.39,4.09-6.98.66-14.87,3.37-22.12,3.89-24.12,1.72-53.86,1.32-77.86-1.12-7.3-.74-14.74-4.17-21.12-4.88-24.08-2.66-48.25.35-72.02,1.99-14.75,1.02-30.65-3.72-45-2-5.33.64-4.16,2.87-6.18,4.07-.62.36-12.02,2.63-13.88,2.87-3.24.42-10.29-.74-12.44.56-1.74,1.05-1.58,5.17-2.93,6.07-2.15,1.42-6.79-.74-10.01,1.99-2.52,2.14-3.37,9.26-6.73,10.27-5.12,1.54-14.83-.96-20.79,1.27-9.32-1.48-19.17-1.45-28.03.92-.99.55.9,2,1.01,2h23c.21,0,4.31,1,3.5,2.46-2.2,3.56-4.55,19.74-7.11,21.48-.71.48-2.45-.64-3.39-.49-1.84.3-3.18,3.03-5.51,2.54,3.2-4.56-1.75-4.27-1.89-5.44-.06-.52,5.34-10.46,1.4-8.54-1.76.71-5.25,12.67-7.53,9.45l-2.47-3.45-4.5,7.99,6.96-17.51c-1.28-1.31-.98-1.87-2.49-.51-3.82,3.47-5.92,11.16-7.5,16.01-1.73.24-.95-2.28-.99-3.48-.11-3.43,1.58-10.49-3-10.51v16.5c0,.17-1.35,1.57-1.99,1.5-.4-3.68,1.91-14.71-4.01-11-.14.31-.28.5-.41.57-.26,3.46,2.47,14.89.58,15.44-2.32.67-1.43-2.15-1.49-3.5-.17-4.12.31-8.46,0-12.51h.32c-.21-2.68-1.32-5.24-1.01-8-5.73.58-1.99,8.62-1.96,12.48.01,1.6-.92,2.61-2.02,1.52-.83-.83-3.25-17.02-6.01-13.99.07,2.17-.12,4.38-.07,6.56.03,1.11,1.97,6.89-.92,4.43-.6-.51-5.36-15.38-9.01-11.99-.93.86,9.76,18.14,10.98,20.51.19,2.97-1.14.76-1.84-.17-.63-.84-8.54-12.11-7.21-3.81.32,2.02,2.21,1.78,3.29,3.7,1.12,1.99,6.47,13.89,5.77,14.74-1.53,1.86-2.14-1.32-2.46-1.99-2.09-4.49-2.82-9.72-5.56-14-2.52-.85-2.47,2.72-3.53,3.03-3.92,1.15-6.84-9.65-8.48-11.03-.19-.16-1.89-.38-1.99.5-.75,6.55,9.7,14.74,10,21.49l-11.5-11.99c-2.06-.43-1.7.98-1.44,2.44.87,4.98,7.24,9.43,9.96,13.54-.97.87-8.54-5.42-10.35-6.17-3.4-1.4-3.08,1.3-.58,3.6,1.53,1.41,11.01,8.62,12.55,9.45,4.44,2.37,10.47,2.3,14.37,7.13.26-.06.45-.12.62-.18,2.24,4.12,11.15-.27,9.38-5.82l.91-.7c.51,3.92,1.54,5.82,3.09,5.7l.95-.45c-.26,3.81-.35,7.85,4.1,4.63.65-7.54,3.08-7.3,7.31-1.99,1.15-1.02,2.36-1.75,3.64-2.2,1.05-.12,1.38.88,1,3-3.28,2.07.05,5.76,3,4,4.07-2.14,14.13-5.43,17.03-8.47.6-.62,4.78-7.71,4.86-8.26.31-2.27-1.86-3.22-1.88-4.76,0-.42,3.24-7.45,3.65-7.55.92-.22,9.98-.32,10.35.04.66.65-.64,16.99,2.62,17.93.96.28,4.74-.99,6.83-.98,11.37.05,9.83.82,10.55,12.05,5.75-.65,2.05-8.93,2.09-12.4.08-6.75,2.62-3.75,6.2-4.57,1.09-.25,1.17-2.41,2.09-3.1,1.93-1.45,8.4-1.28,10.9-.72,2.64.6,4.4,3.58,7.25,3.76,2.4.15,15.18-2.25,16.46-.97.25,4-.24,14.81,1.48,18.02,1.9,3.55,2.77-6.02,6.02-6.02h34.5c.11-2.79.65-16.67,1.94-17.56,9.34-.97,18.8-.6,28.06.57l1.81,18.74c.38.8-.95,2.26-1.31,2.26h-24.32c-1.06,0-1.9,2.84-1.5,4h29.82c4.48,0,1.15-7.57,3.41-10.58,2.07-2.76,3.7-.42,4.59-.42h45.5l3.43-42.07c.82-1.2,19.74-1.51,21.93-.79,2.33.76,2.3,13.89,2.77,17.23,1.68,12.06,4.3,24,5.92,36.08l2.95,2.55v-27.5c0-3.41,12.87,1.12,16.39-1.39,1.98-1.41.13-11.2,5.11-12.1,5.14-.94,12.34.74,17.97-1.04,3.66.54,3.62,7.15,6.52,8.55,2.04.99,14.1,1.76,14.01-2l2.46-33.57c3.48-.08,4.18-4.12,6.22-4.76,2.32-.72,18.67-.55,19.83.81,2.71,3.18,3.06,30.01,4.48,36.02,2.79.35,13.43.4,15.05,1.45,1.8,1.17,1.25,6.97,3.35,8.65,2.44,1.94,9.06.34,9.61.89.62.63-1.42,6.86,1.64,7.87,2.87.94,14.77.17,18.9.19,7.87.04,5.5.86,11,1.91,5.01.96,12.16-.61,17.46.05,2.54-10.32-6.54-17.21-6.94-26.66-.11-2.63,1.51-12.41-1.08-14.34-3.82-2.85-1.9,7.13-2.44,8-4.11,6.66-12.25-8.14-8.64-12.61,2.63-3.26,7.32-.34,10.48-.51ZM79.81,250.66c2.61,2.35,5.8,6.4,5.98,10-2.83-2.24-5.28-6.47-5.98-10ZM108.12,254.66v-14l2.08,6.5-2.08,7.5ZM111.81,260.66c.29-2.87.47-8.18,2.98-10-.12,3.04,0,8.21-2.98,10ZM122.8,264.65l8.99-7.99c1.21,1.31-6.57,8.78-8.99,7.99Z"/>
  <path class="st1" d="M385.78,107.14c35.85-2.17,71.56-5.48,107.51-6.49l2.5-2.99c-19.05-2.27-38.14-2.05-57.34-2.17-32.84-62.3-110.55-85.08-170.57-45.25-5.04,3.34-22.27,20.75-23.8,21.2-3.58,1.06-9.56-.28-13.71.29-4.73.65-9.11,4.39-14.37,5.63-6.34,1.5-11.77.62-17.71,1.29-2.81.32-19.79,2.25-20.51,3-1.4,1.46.08,1.81,1.48,1.99,3.79.48,10.03.18,14.07.05,23.36-.79,46.51-2.97,69.91-3.09,12.04-.06,24.76-.66,36.53,1.05.28,1.29-1.86,1.61-2.73,1.74-10.69,1.61-22.4,3.88-32.89,5.12-5.78.69-28.26.53-31.1,2.4-5.19,3.42-13.56,35.4-14.27,42.73l4.98,1.97c33.16,2.57,65.78.48,98.46-3.01,36.61,1.04,73.79,1.99,110.69,2.67,2.63.05,5.27-.21,7.93-.49,2.66-.27,5.3-.68,7.94-1.14-.54-3.41-3.15-20.03-5.63-20.87-17.16-.92-34.8-.18-51.87-2.13-1.12-.13-8.8-1.68-5.52-3.52ZM308.18,53.54c-31.1,3.41-9.42-6.45,5.61-1.87-.13,1.41-4.46,1.74-5.61,1.87ZM362.8,73.8c-1.57-1.19-.03-1.83,1.48-2.01,12.17-1.43,26.49-2.39,38.52-.98l-40,2.99Z"/>
  <path class="st3" d="M585.8,322.66c-.46.51-3.77,3.84-4,4-2.37-.85.24-2.71.99-3.52,1.75-1.9,3.76-3.59,5.52-5.48,1.3,1.22-1.7,4.09-2.5,5Z"/>
  <path class="st1" d="M582.8,286.81c-.49-.64-.72-1.53-1.5-1.98l-1.93,2.05-3.56,9.93c-.82-5.44,2.61-10.22,2.98-15.51.1-1.44.89-3.97-1.47-3.47-3.11,3.93-2.56,9.49-4.53,13.98-2.5.02.68-9.63-2.47-7.98-.97.5-1.5,2.13-1.84,3.17l-2.67,9.82c-.96-4.52,1.02-9.37,1.03-13.48,0-2.6-2.33-2.1-3.03-.53.13,2.65-1.95,11.82-2.87,14.49-.45,1.3-.28,3.05-2.12,3.37-.03-6.58,3.3-13.93,3.99-20,0,.03,0,.07,0,.11.3-2.68,1.12-11.36-2.92-8.89-.98.6-1.75,12.62-2.09,14.93l-1.98-1.99-5,9.99c-.3-3.88,1.83-6.95,2.99-10-.38-.86-.72-.87-1,0l-2.01-4-2.98,2.99c-.09-2.15.08-4.34-.01-6.5-.07-1.54.94-3.96-1.48-3.48-3.92,4.23,1.49,10.93-4.5,13.76l-2.01,8.23.98-26.99c-2.19-.59-2.43.91-2.72,2.72-.79,4.88-.46,10.52-1.54,15.51-.21.97-.35,3-1.72,2.75l.98-19.99c-4.63.5-3.8,7.54-4.48,11.02-.21,1.06-.07,3.23-1.51,2.96-1.79-2.23-3.42-15.44-4.02-16-2.39-2.22-4.17,2.3-2.54,5.05l8.05,29.95c-4.16-4.34-6.12-18.45-9-22-.83-1.02-1.3-1.35-2.02-.01-2.33,4.34,2.09,10.5.02,15.01-3.74-1.87-3.33-11.83-4.52-12.99-3.42-3.33-.59,11.55-3.97,8-.78-.82-2.06-14.58-2.01-17.01h-2.99c-.43,11.71,3.92,22.91,6.99,34.01l-6.31-12.18c-.92-2.86-2.14-15.24-2.69-15.82-1.43-1.5-1.8.11-1.99,1.48-.62,4.63.97,8.98.99,13.52l-3.52-9.97c-.38-1.23-3.16-1.33-3.47-1.02-2.03,2.07,7.02,22.82,6.98,26.99l-8.5-16.02-2.48-1.97c-.07,8.02,5.21,15.28,8.99,21.99-1.09,1.17-5.31-4.68-5.97-5.52-1.94-2.48-4.98-8.57-7.01-9.99-1.42-1-2.29-.86-2.04,1.03,1.16,8.7,15.93,19.59,21.01,26.49-6.9-1.87-11.29-10.58-16.5-13.99-1.4-.92-2.46-.72-2.48.5,0,.89,9.18,13.15,10.48,14.5,4.38,4.51,19.56,13.67,25.78,11.86,3.2-.93,5.32-10.91,6.7-9.85,3.77,9.12,16.51,26.44,27.37,25.94,6.58-.31,11-5.75,15.35-6.73,9.18-2.07,23.43,2.95,31.29-5.2-2.84-1.24-17.28,3.56-17.95,2.95-.32-.29.15-1.66-.05-1.96.85-2.31.14-2.38-2-2-.9-.76-1.8-1.35-3-1-.06-2.58-3.18-3.08-5-2l-2.32-.09c-3.42,4.22-8.12,7.23-12.68,10.09-1.72-1.36-3.72-1.7-6-1-1.99,1.22-3.06-.87-3.22-6.26.12.72.52.81,1.22.26.93-.29,1.6-1.29,2-3,0,0,0,0,.01-.01,0-.04,0-.1-.01-.14-.78-3.05-1.37-5.79-.99-9,2.66,1.58,2.82,8.41,1.06,10.88-.03.09-.05.17-.08.27-1.69,5.85,5.97,1.3,7.24-2.65.61-1.89.85-4.13-.07-5.69,1.54.81,4.22-.88,5.83-2.66,1.37.47,2.7-.19,4-2,2.19,2.64,8.21,1.69,8-2,1.44-1.87,2.61-3.39,3.54-4.59l.46.59c.29,2.3.82,2.52,3,2-.82,1.27-.82,1.94,0,2,1.31,1.36,2.64,1.69,4,1,.88-3.24,3.67-5.08,5.39-8.11,1.17-2.06,8.62-17.38,8.59-18.39-.02-.64-1.55-1.94-3-1.02-3.95,2.52-7.25,17.48-12.49,20.52-2.09-3.51,8.91-16.79,7.5-17.99-4.89-1.31-5.51,4.12-8.48,7.01l-10.51,9.98c-.92-.94,15.23-17.26,14.98-21.5-.02-.38-1.62-1.84-2.46-1.49l-4.5,6c.29-3.18,7.93-14.7,5.98-16.99-2.51-2.96-5.22,12.42-7.99,11.99.06-2.9,4.22-18.97,3.53-20.01-.51-.78-1.91-1.44-2.53-.99M576.8,301.66c-1.59,5.17-.22,12.97-3.99,16.99-.18-4.9.8-9.86,1.96-14.57.42-1.69-.99-2.91,2.02-2.42ZM571.55,297.86c.61-1.5-.6-2.71,2.25-2.2l-2.53,7.96-4.46,9.03c.21-5.2,2.8-10.04,4.74-14.79ZM565.79,320.66c.52,3.66-1.17,6.97-2.99,10-.02.03-.05.06-.07.09.03.02.04.04.07.07.02.73.15,1.28.34,1.71-.37-.3-.8-.54-1.34-.71.04-.09.07-.18.1-.27-.03.04-.07.08-.1.12-.03-.21-.91-.77-.99-1.61-.3-3.29,2.05-7.82,4.98-9.39ZM560.92,316.28c.43-4.69.51-12.27,3.87-15.63l-3,18.99c-1.79.23-.97-2.25-.87-3.37ZM557.79,328.66c-3.43-.08-3.78-12.45-1-9l1,9ZM556.79,293.66l-.99,9c-4.13.91-.96-8.53.99-9ZM512.79,315.66c-3.52-3.69-6.77-9.96-6.98-14.99l6.98,14.99ZM505.81,314.66c3.67,3.32,6.81,8.15,7.98,13-3.41-3.37-6.81-8.32-7.98-13ZM517.79,327.65l-2.98-8.99c3.87,1.57,3.07,5.5,2.98,8.99ZM517.83,310.14c-.61-4.23-.34-8.96-2.01-13.01l1.97-.48,2.01,16c-2.98.46-1.7-.65-1.97-2.5ZM523.79,332.65c-1.88-.59-1.08-5.92-.88-7.38.28-2.01.69-5.74,2.88-6.61l-2,13.99ZM523.81,315.66l-.99-9,2.98,3.99c-.2-2,.42-4.42-.01-6.31-.07-.3-5.52-4.27.01-4.69l2.02,8.42-4.01,7.58ZM536.49,299.45c1.79,5.26,2.91,10.84,4.3,16.2-4.79-4.4-4.92-12.95-5.98-18.99,1.47-.23,1.33,1.74,1.68,2.79ZM535.79,317.66c-2.97-2.13-3.78-7.56-3.98-11,3.32,2.08,2.88,7.56,3.98,11ZM538.57,335.39c-1.88-2.7-4.5-6.36-4.76-9.72l10.99,15.99c-1.34,1.28-5.51-5.23-6.23-6.26ZM546.12,320.8c-3.75-1.18-1-6.64-1-8.5v-21.5h1v30ZM549.79,344.66c-2.93-1.76-4.29-7.67-1.48-9.99,2.09,2.86,1.47,6.67,1.48,9.99ZM550.08,327.44c-.48,1.27-.58,2.94-2.27,3.22,2.9-9.14,2.61-17.19,2.99-26.51.05-1.21-.76-3.72.99-3.48,1.63,8.62,1.43,18.52-1.71,26.77Z"/>
  <path class="st1" d="M492.14,340.82c-2.86-.98-10.98.05-14.83-.17-94.59-5.42-191.73-.48-286.02-6.98-2.06-.14-11.09.4-11.49,0-.69-.69,1.46-8.07-1.64-8.88-6.34,1.43-14.53-.08-20.36.88-6.77-1.57-13.63-4.01-19.01-8.49-3.94-3.28-18-21.89-22.45-20.51-1.31.4-1.35,3.33-2.03,2.99-1.94-.96-5.68-8.82-10.5-6.99l1.5,5.99c-3.88-.84-26.11-14.4-27.5-12.99-.8.82-.21,2.35,1.25,3.26,3.28,2.05,8.43,3.07,10.75,6.72-3.91-.03-15.95-10.03-15.53-2.96,9.99,3.91,18.18,10.96,28.53,13.98-.06,2.14-4.95.37-5.99-.01,0,0-.02,0-.02.01-11.53-4.33-22.97-13.58-34.2-18.83-1.25-.28-3.21-.39-2.45,1.45,1.05,2.53,8.4,4.93,9.99,7.5-4.08.41-14.64-7.43-17.47-6.99-1.02.16-2.33,2.04-.49,3.47,2.88,2.24,11.25,4.14,14.96,5.55.24,1.74-2.28.94-3.48.99-2.7.1-8.58-.58-10.51,0-.15.47-.29.9-.42,1.31-.11,2.08.35,1.1,2.52,1.58,10.2,2.29,23.25,2.2,31.58,8.96-1.76.23-3.3-.07-5-.49-9.16-2.27-20.23-7.28-29.65-8.45-.01.03-.02.07-.03.1-1.86-.21-6.66.72-5,2.99.73.99,20.24,4.39,23.99,5.51,1.8.54,6.76.92,6,3.5l-24.41-4.88c-3.93,3.09-.45,3.65,1.42,5.87l-11.99-.98.98,2.51,21,2.48c-5.75,1.98-13.7.49-19.31,2.19-1.34.41-1.93,1.45-1.68,2.82h17.49c.69,0,3.4-1.4,3.49.99-2.88-.46-4.66,2.04-6.78,2.72-2.1.66-10.45,1.55-11.2,2.31-2.45,2.48,5.62,2.03,3.99,4.98h-6s0,3.01,0,3.01h14l-12,3.01c-.28,1.31.41,2.52,1.67,2.88,1.93.56,19.37-3.06,23.07-3.67,1.94-.32,1.2.04,1.26,1.77-5.43.78-15.62,1.81-20.28,4.23-1.61.83-2.59,2.89-1.72,3.77.98.99,22.25-6.97,25.99-5.5-8.14,5.27-19.62,6.24-28.01,10.04-1.52.69-2.46-.12-1.98,2.46,8.8.49,16.48-4.75,24.99-5.98l-14.99,6c0,6.16,7.1-.33,9,.99-3.17,8.38,13.13.09,16.49-.02-.75,5.93,9.72.35,12.87-1.13,3.91-1.83,7.97-6,11.64-5.36-4.08,4.67-11.94,6.22-16.7,9.3-9.75,6.29,7.39.07,8.12.14.89.08.77,2.5,2.2,2.99,4.47,1.5,18.62-7.48,20.17-6.68.48.25-.7,2.47,3.45,1.54,3.52-.79,7.03-3.73,9.76-4.79.1-.12.18-.24.26-.36,6.97-2.66,14.05-4.48,21.42-5.78,2.99.33,6.07-.3,9.26.24,8.94,1.5,15.76,12.61,14.73-5.25,29.83.36,59.71.39,89.55.96,65.55,1.26,131.37,3.89,196.92,5.08,4.51.08,26.17.68,28.06-1.02,2.13-1.91,1.57-6.92-1.18-7.86ZM128.8,312.15c.94,1.12,2.43,1.63,1.99,3.5-.97,1.05-14.01-12.16-14.99-13.99,4.42.65,10.08,7,13,10.49ZM92.8,297.67c6.41.69,14.64,2.75,19.73,6.76,1.2.95,2.73,1.16,2.26,3.23l-21.99-9.99ZM92.81,309.67c.97.05,2.03-.13,2.99-.01,5,.64,14.77,6.77,19,9.99-6.56-2.81-13.45-5.19-20-7.99-.72-.31-2.72-1.61-1.99-1.99ZM90.8,317.66c7.25,1.34,16.03,1.93,23,4l.36-.09c-.01.06-.02.13-.03.19,1.4.43,5.46,1.72,5.68,1.91,2.3,2.1-2.35,2.02-3.39,1.89-11.13-1.45-23.11-6.81-34.6-6.91l9-.99ZM135.17,336.69c-.13-.04-.27-.07-.4-.1l-31.98-4.42c-1.31-1.14-1.62-1.79.5-1.51,5.54.74,10.96,1.4,16.52,2,4.63.5,9.29,2.46,14,2,.12-.01.24-.04.36-.06-.02.07-.03.13-.04.2-.05.03-.1.06-.14.09l1.32,1.76-.29-.04c.06.03.11.05.16.07ZM134.11,332.65c-4.56-1.04-9.44-1.04-13.99-2-1.23-.26-2.92-1.81-5-1.01v-.98c2.97.13,6.03-.22,9-.01,2.73.2,5.45.51,8,1.55,1.59.65,2.45-.12,2,2.44ZM94.8,326.65c-3.78-.28-7.78-1.02-11.42-2.07-1.13-.32-3.71-.4-3.57-1.91,4.61.68,11.85.07,15,3.98ZM55.12,334.8c-.08-.65,1.33-2,1.5-2h25.5v2h-27ZM78.6,354.91c-3.29,1.32-7.22,2.72-10.8,2.74l12.99-4.99c.51,2.83-.68,1.64-2.19,2.25ZM96.84,346.2l-5.04.45c.18-1.48,3.57-2.36,4.79-2.7,2.88-.8,6.2-1.31,9.2-1.28l-8.95,3.53ZM105.34,339.8l-31.54-.05c0-1.69,3.32-1.9,4.49-2,7.31-.58,15.58.16,23.05.05,4.45-.07,8.54-2.14,13.45-.03l-9.45,2.03ZM134.8,338.67l-21.99,5.99c-.48-2.58.45-1.78,1.98-2.46,5.41-2.43,14.07-3.27,20.01-3.53ZM136.8,343.66c-4.4,1.5-10.4,2.94-15,4-2.52.58-5.2,1.34-7.71,1.81-1.95.37-1.83-1.25-1.29-1.8.83-.84,19.79-4.92,22.88-5.64,2.88-.67,2.42-.55,1.12,1.63ZM138.31,329.65c-4.53-2.34-8.49-5.59-12.83-8.21-.92-.55-2.23-.5-2.68-.78-.32-.2-.58-.68-.93-.94-.04-.02-.09-.03-.13-.05l.06-.02c-3.98-2.48-7.88-5.19-12-7.5l10.35,3.65c4.01,1.93,15.84,8.62,18.18,11.82.51.7,1.04,1.77-.03,2.03ZM146.8,347.8h-3c.21-4.3-.3-8.72,0-13.01.23-3.28,1.61-6.51,1.01-10,3.18-.23,2.86,2.19,3.05,4.44.52,6.25-.78,12.39-1.06,18.56ZM153.52,343.92c-.36,1.84-.46,3.3-2.72,2.73-.04-1.99.04-4,0-6l1.11-12.91c.34-.43,1.45.06,1.89-.09-.42,5.18.72,11.22-.28,16.27Z"/>
  <path class="st1" d="M625.64,311.67c-1.08.45-12.91,14.39-16.01,16.99-1.12.94-1.63,2.43-3.5,1.99,1.23-2.02,9.01-9.94,8.98-11.5-.03-1.35-1.4-1.23-2.65-.68-3.09,1.35-5.97,5.8-10.33,5.18,4.3-5.29,9.2-11,9.99-17.98-4.27-.98-2.93,2.2-4.5,4.99-1.69,2.99-1.3-1.99-2.48-.99.7,3.66-9.65,18.29-12.01,17.99-.85-.11-.98-3.67-4-1-.17.1-.29.14-.4.16-.72,1.43-5.23,5.05-6.93,5.33l7.01-7.49c.03.1.05.31.06.55.08-.17.16-.35.26-.55-.44-1.51-1.48-1.97-3-2-1.57-.36-4.39,2.42-4,4-1.78,1.27-5.37,1.35-8,2-.24.28-.47.53-.69.78-2.4,5.14-5.11,10.13-9.14,14.22-1.5-.78.29-2.41.67-3.33.99-2.34,3.43-7.81,4.81-9.63-2.31.27-4.58,1.58-6.65-.03-1.36-.96-1.76-.44-1,1,.51,3.62,1.71,6.33-.01,9.99l-2.98-6.99-.02,7.99c-1.31.19-1.49.29-1.99-.99.52-1.19.52-1.86,0-2-1.43.43-1.99,1.54-2,3-.08.08-.15.18-.23.27.6,1.65.44,3.48,1.9,5.73,0,.02,0,.03,0,.05.1-.02.21-.02.32-.05.41.63,1.06,1.97,1.69,2.05,1.5-.09,2.86-.79,4.31-1.05.07-.03.13-.07.2-.11-.17.04-.35.08-.52.11,2.52-2.66,12.01-12.95,14.51-13.99,2.47-1.03,1.06,2.88.55,3.87l.26.12c.6,1.92,4.09,1.72,4.87,1.94,3.14-.86,5.11-3.7,8.81-2.93-.87,1.81-3.85,3.22-5.74,3.9.02.03.05.06.06.09.18,1.06,1.72,1.58,2,2,5.4-.51,10.87-1.76,15.98-3.52,1.56-.54,16.29-6.4,14.02-8.47-5.77-.64-10.14,5.72-15.99,4.5,2.86-2.33,17.44-7.39,18.77-9.7.29-.5.42-2.57.22-2.8-1.12-1.26-3.63,3.37-4.99,1.5,2.78-3.43,10.2-8.68,11.01-12.99.24-1.29-.18-2.05-1.5-1.5ZM594.8,336.65l12.99-12.99c.44,1.87-1.04,2.38-1.99,3.5-2.66,3.16-7.22,7.98-11,9.49Z"/>
  <path class="st1" d="M133.8,275.66l-11.01,2.98c-.09-.57,1.02-.91,1.01-.98-.15-.99-3.56-1.88-3-4-.86-.27-1.2-1.27-1-3-1.2-1.3-2.3,1.35-2.98.99-.07-.04.19-1.07-.37-1.59-.76-.69-4.84-4.27-5.15-4.4-.82-.33-.19,1.25-.85,1.65-.81.49-2.17.2-2.45.49-.53.54-.26,5.37-1.21,6.85-2.4-1.1.53-6.33-2.98-6.99-.08.99.08,2.01,0,3-.68-.18-.99.08-1.11.5-.56-2.28-1.52-4.12-2.89-5.5-2.19,4.37-5.42,7.21-9.99,4-.16.61.17,1.59,0,2-.9,2.03-2.56.71-4,0-3.89-.9-2.76,1.25,0,3,1.52.72,4.31,2.52,6.03,3.51.66.38,3.66.81,1.96,2.49-.51.5-11.27-5.43-12.99-6-2.57-1.85-3.99-.46-2,2,10.51,7.78,15.15,6.63,27.49,7.01,1.95.06,3.91,1.07,6.01,1.08,2.92.02,20.41-3.69,21.35-5.23.54-.88,0-2.69.14-3.85Z"/>
</svg>